<svg id="Layer_1" xmlns="http://www.w3.org/2000/svg" version="1.1"
   viewBox="887.25 886.88 1773.95 1774.42">
   <defs>
      <style> .st0 { fill: #fff; } </style>
   </defs>
   <path class="st0"
      d="M1197.2,1913.5c61.1,0,122.6,23.5,169.2,70l174.1,173.9c19.2,19.2,43.8,28.5,69.1,28.6,25.2,0,49.7-9.4,69.1-28.6,19.2-19.2,28.5-43.8,28.6-69.1,0-25.2-9.4-49.7-28.6-69.1l-34.9-34.9-139.1-139.1c-46.6-46.6-70.2-108.3-70-169.2,0-61.1,23.5-122.6,70-169.2,46.6-46.6,108.3-70.2,169.2-70,61.1,0,122.6,23.5,169.2,70l174.1,174.1c19.2,19.2,43.8,28.5,69.1,28.6,25.2,0,49.7-9.4,69.1-28.6,19.2-19.2,28.5-43.8,28.6-69.1,0-25.2-9.4-49.7-28.6-69.1l-622.8-622.8c-141.2,39.8-274.5,115.1-385.6,226.2-250.6,250.6-319.8,613.5-207.9,926.4l89.4-89.4c46.6-46.6,108.3-70.2,169.2-70l-.3.5Z"></path>
   <path class="st0"
      d="M2401.2,1146.5c-191.5-191.5-448.9-277-699.1-256.7l553.1,553.1c46.6,46.6,70.2,108.1,70,169.2,0,61.1-23.4,122.6-70,169.2-46.6,46.6-108.3,70.2-169.2,70-61.1,0-122.6-23.5-169.2-70l-173.9-173.9c-19.2-19.2-43.8-28.5-69.1-28.6-25.2,0-49.7,9.4-69.1,28.6-19.2,19.2-28.5,43.8-28.6,69.1,0,25.2,9.4,49.7,28.6,69.1l139.1,139.1,34.9,34.9c46.6,46.6,70.2,108.1,70,169.2,0,61.1-23.5,122.6-70,169.2-46.6,46.6-108.3,70.2-169.2,70-61.1,0-122.6-23.5-169.2-70l-173.9-173.9c-19.2-19.2-43.8-28.5-69.1-28.6-25.2,0-49.7,9.4-69.1,28.6l-126.5,126.5c38.7,68.3,86.9,132.7,145,190.9,346.4,346.4,908.1,346.4,1254.7,0,346.4-346.4,346.4-908.1,0-1254.7l-.2-.3Z"></path>
</svg>
