<?xml version="1.0" encoding="UTF-8"?>
<svg id="Layer_1" xmlns="http://www.w3.org/2000/svg" version="1.1" viewBox="0 0 6252.6 2304.5">
  <!-- Generator: Adobe Illustrator 29.1.0, SVG Export Plug-In . SVG Version: 2.1.0 Build 142)  -->
  <title>Product logo</title>
<metadata><?xpacket begin="﻿" id="W5M0MpCehiHzreSzNTczkc9d"?>
<x:xmpmeta xmlns:x="adobe:ns:meta/" x:xmptk="XMP Core 5.6.0">
   <rdf:RDF xmlns:rdf="http://www.w3.org/1999/02/22-rdf-syntax-ns#">
      <rdf:Description rdf:about=""
            xmlns:xmpMM="http://ns.adobe.com/xap/1.0/mm/"
            xmlns:xmp="http://ns.adobe.com/xap/1.0/"
            xmlns:dc="http://purl.org/dc/elements/1.1/"
            xmlns:fwr="http://ns.fotoware.com/iptcxmp-reserved/1.0/"
            xmlns:skyview="http://ns.fotoware.com/skyview/1.0/">
         <xmpMM:DocumentID>xmp.did:4F65473A0A1E4E69 BD40A81D5DDDF67F</xmpMM:DocumentID>
         <xmpMM:OriginalDocumentID>xmp.did:4F65473A0A1E4E69 BD40A81D5DDDF67F</xmpMM:OriginalDocumentID>
         <xmpMM:InstanceID>xmp.iid:22B2098BBBD74596 AB2856265426D82B</xmpMM:InstanceID>
         <xmp:CreateDate>2025-01-27T15:01:39+01:00</xmp:CreateDate>
         <xmp:ModifyDate>2025-01-27T15:01:39+01:00</xmp:ModifyDate>
         <xmp:MetadataDate>2025-01-02T13:14:23+01:00</xmp:MetadataDate>
         <xmp:CreatorTool>FotoWare FotoWeb</xmp:CreatorTool>
         <xmp:XMPFileStamps>
            <rdf:Seq>
               <rdf:li>2025-01-27T15:01:39+01:00</rdf:li>
            </rdf:Seq>
         </xmp:XMPFileStamps>
         <dc:title>
            <rdf:Alt>
               <rdf:li xml:lang="x-default">Product logo</rdf:li>
            </rdf:Alt>
         </dc:title>
         <dc:subject>
            <rdf:Bag>
               <rdf:li>DAM solution</rdf:li>
               <rdf:li>2025</rdf:li>
               <rdf:li>Fotoware Alto</rdf:li>
               <rdf:li>Alto</rdf:li>
            </rdf:Bag>
         </dc:subject>
         <fwr:DocumentText> </fwr:DocumentText>
         <fwr:UniqueId>FDA34D311331499D 8F4BCD2627462A5E</fwr:UniqueId>
         <fwr:History>
            <rdf:Seq>
               <rdf:li>A=5011 N=0 E=FWW D=2025-01-02 T=12:14:23 U=15047 V=action</rdf:li>
            </rdf:Seq>
         </fwr:History>
         <fwr:UploadInfo>
            <rdf:Description>
               <fwr:UploadedBy>amalie.widerberg@fotoware.com</fwr:UploadedBy>
               <fwr:UploadedByFullName>Amalie Widerberg</fwr:UploadedByFullName>
               <fwr:UploadTime>2024-12-23T11:31:45.872198</fwr:UploadTime>
            </rdf:Description>
         </fwr:UploadInfo>
         <skyview:CustomField21>Logos</skyview:CustomField21>
         <skyview:CustomBag7>
            <rdf:Bag>
               <rdf:li>Klingit</rdf:li>
            </rdf:Bag>
         </skyview:CustomBag7>
         <skyview:CustomBag12>
            <rdf:Bag>
               <rdf:li>Product logo</rdf:li>
               <rdf:li>Fotoware Alto</rdf:li>
            </rdf:Bag>
         </skyview:CustomBag12>
      </rdf:Description>
   </rdf:RDF>
</x:xmpmeta>
                                                                                                    
                                                                                                    
                                                                                                    
                                                                                                    
                                                                                                    
                                                                                                    
                                                                                                    
                                                                                                    
                                                                                                    
                                                                                                    
                                                                                                    
                                                                                                    
                                                                                                    
                            
<?xpacket end="w"?></metadata>
<g>
    <path d="M1585.6,1877.6l142.4-380.5h74.5l141.9,380.5h-66.9l-35.9-94h-156l-35.3,94h-64.7ZM1703,1730.3h121.2l-60.9-165.8-60.3,165.8Z"/>
    <path d="M1977.5,1497.1h58.7v380.5h-58.7v-380.5Z"/>
    <path d="M2113.9,1650.9h-48.4v-51.6h48.4v-77.7h59.2v77.7h67.9v51.6h-67.9v145.1c0,21.7,7.6,29.9,29.9,29.9h41.3v51.6h-54.4c-53.3,0-76.1-25-76.1-75.6v-151.1Z"/>
    <path d="M2265.6,1738.4c0-84.8,57.1-142.4,141.9-142.4s141.9,57.6,141.9,142.4-57.1,142.4-141.9,142.4-141.9-57.1-141.9-142.4ZM2489.5,1738.4c0-53.8-32.6-92.4-82.1-92.4s-81.5,38.6-81.5,92.4,32.1,92.4,81.5,92.4,82.1-38.6,82.1-92.4Z"/>
  </g>
  <path d="M580.2,927.3c29.6,0,59.4,11.4,82,33.9l84.3,84.2c9.3,9.3,21.2,13.8,33.5,13.9,12.2,0,24.1-4.6,33.5-13.9,9.3-9.3,13.8-21.2,13.9-33.5,0-12.2-4.6-24.1-13.9-33.5l-16.9-16.9-67.4-67.4c-22.6-22.6-34-52.5-33.9-82,0-29.6,11.4-59.4,33.9-82,22.6-22.6,52.5-34,82-33.9,29.6,0,59.4,11.4,82,33.9l84.3,84.3c9.3,9.3,21.2,13.8,33.5,13.9,12.2,0,24.1-4.6,33.5-13.9,9.3-9.3,13.8-21.2,13.9-33.5,0-12.2-4.6-24.1-13.9-33.5l-301.7-301.7c-68.4,19.3-133,55.7-186.8,109.6-121.4,121.4-154.9,297.2-100.7,448.7l43.3-43.3c22.6-22.6,52.5-34,82-33.9l-.2.2Z"/>
  <path d="M1163.4,555.8c-92.8-92.8-217.4-134.2-338.6-124.3l267.9,267.9c22.6,22.6,34,52.4,33.9,82,0,29.6-11.4,59.4-33.9,82-22.6,22.6-52.5,34-82,33.9-29.6,0-59.4-11.4-82-33.9l-84.2-84.2c-9.3-9.3-21.2-13.8-33.5-13.9-12.2,0-24.1,4.6-33.5,13.9-9.3,9.3-13.8,21.2-13.9,33.5,0,12.2,4.6,24.1,13.9,33.5l67.4,67.4,16.9,16.9c22.6,22.6,34,52.4,33.9,82,0,29.6-11.4,59.4-33.9,82-22.6,22.6-52.5,34-82,33.9-29.6,0-59.4-11.4-82-33.9l-84.2-84.2c-9.3-9.3-21.2-13.8-33.5-13.9-12.2,0-24.1,4.6-33.5,13.9l-61.3,61.3c18.8,33.1,42.1,64.3,70.2,92.5,167.8,167.8,439.9,167.8,607.8,0,167.8-167.8,167.8-439.9,0-607.8v-.2Z"/>
  <path d="M5438.6,890.8c6-68,68-118,137-118s130,44,136,118h-273ZM5587.6,1212.8c124,0,211-81,229-181h-111c-12,57-63,94-124,94-87,0-143-61-149-149v-6h390v-37c0-154-99-246-247-246s-254,104-254,265,99,260,266,260ZM5011.6,1206.8h111v-260c0-75,31-155,124-155h51v-98h-26c-80,0-124,36-149,79l-12-79h-99v513ZM4658.6,1212.8c72,0,119-30,156-72l12,66h92v-335c0-117-74-184-209-184s-217,60-230,159h113c6-42,48-74,110-74s111,38,111,93v31h-130c-143,0-218,62-218,168s81,148,193,148ZM4671.6,1125.8c-55,0-93-31-93-67,0-57,38-82,105-82h130v19c0,81-50,130-142,130ZM3755.6,1212.8c93,0,171-54,171-181v-186c0-41,19-72,55-72s55,31,55,72v186c0,127,78,181,171,181s176-53,176-178v-341h-111v350c0,39-22,70-65,70s-65-31-65-70v-186c0-128-77-170-161-170s-161,42-161,170v186c0,39-22,70-65,70s-65-31-65-70v-350h-111v341c0,125,83,178,176,178ZM3233.6,1119.8c-88,0-150-74-150-173s62-167,150-167,153,67,153,167-60,173-153,173ZM3233.6,1212.8c159,0,264-105,264-266s-105-259-264-259-261,104-261,259,105,266,261,266ZM2836.6,1206.8h99v-93h-74c-44,0-57-19-57-55v-273h125v-92h-125v-144h-111v144h-86v92h86v279c0,93,44,142,143,142ZM2309.6,1119.8c-87,0-147-74-147-173s60-167,147-167,155,67,155,167-62,173-155,173ZM2309.6,1212.8c162,0,267-105,267-266s-105-259-267-259-259,104-259,259,106,266,259,266ZM1585.6,1206.8h111v-298h273v-98h-273v-205h335v-99h-446v700Z"/>
</svg>