<?xml version="1.0" encoding="utf-8"?>
<!-- Generator: Adobe Illustrator 22.1.0, SVG Export Plug-In . SVG Version: 6.00 Build 0)  -->
<svg version="1.1" id="Ebene_1" xmlns="http://www.w3.org/2000/svg" xmlns:xlink="http://www.w3.org/1999/xlink" x="0px" y="0px"
	 viewBox="0 0 108.4 22.9" style="enable-background:new 0 0 108.4 22.9;" xml:space="preserve">
<style type="text/css">
	.st0{fill:#181716;}
</style>
<g>
	<g>
		<g>
			<g>
				<g>
					<path class="st0" d="M22.3,9.4h3c1.4,0,2.2,1,2.2,2.1s-0.8,2.1-2.2,2.1h-1.7v2.3h-1.4V9.4H22.3z M25.2,10.6h-1.5v1.8h1.5
						c0.5,0,1-0.3,1-0.9C26.1,10.9,25.7,10.6,25.2,10.6z"/>
					<path class="st0" d="M29.9,9.4h1.4v6.5h-1.4V9.4z"/>
					<path class="st0" d="M33.7,12.6c0-2,1.5-3.4,3.4-3.4c1.5,0,2.3,0.8,2.8,1.6l-1.2,0.6c-0.3-0.5-0.9-0.9-1.6-0.9
						c-1.1,0-2,0.9-2,2.1s0.9,2.1,2,2.1c0.7,0,1.3-0.4,1.6-0.9l1.2,0.6c-0.5,0.8-1.3,1.6-2.8,1.6C35.3,16,33.7,14.6,33.7,12.6z"/>
					<path class="st0" d="M43.2,10.6h-1.9V9.4h5.2v1.2h-1.9v5.3h-1.4C43.2,15.9,43.2,10.6,43.2,10.6z"/>
					<path class="st0" d="M48.9,9.4h1.4v3.8c0,0.9,0.5,1.5,1.5,1.5s1.5-0.6,1.5-1.5V9.4h1.4v3.9c0,1.6-0.9,2.7-2.9,2.7
						s-2.9-1.1-2.9-2.7C48.9,13.3,48.9,9.4,48.9,9.4z"/>
					<path class="st0" d="M60.5,13.5h-1v2.4h-1.4V9.4h3c1.4,0,2.2,0.9,2.2,2.1c0,1.1-0.7,1.8-1.4,1.9l1.5,2.5h-1.6L60.5,13.5z
						 M61,10.6h-1.4v1.8H61c0.6,0,1-0.3,1-0.9C61.9,10.9,61.5,10.6,61,10.6z"/>
					<path class="st0" d="M66.9,9.4h4.6v1.2h-3.2V12h3.1v1.2h-3.1v1.5h3.2v1.2h-4.6V9.4z"/>
					<path class="st0" d="M75.1,9.4h3c1.4,0,2.2,1,2.2,2.1s-0.8,2.1-2.2,2.1h-1.7v2.3h-1.3V9.4z M77.9,10.6h-1.5v1.8h1.5
						c0.5,0,1-0.3,1-0.9S78.4,10.6,77.9,10.6z"/>
					<path class="st0" d="M86.5,14.7h-2.9l-0.4,1.2h-1.5l2.5-6.5h1.7l2.5,6.5h-1.5L86.5,14.7z M83.9,13.5h2.2l-1.1-3L83.9,13.5z"/>
					<path class="st0" d="M93.5,13.5h-1v2.4h-1.4V9.4h3c1.4,0,2.2,0.9,2.2,2.1c0,1.1-0.7,1.8-1.4,1.9l1.5,2.5h-1.6L93.5,13.5z
						 M93.9,10.6h-1.4v1.8h1.4c0.6,0,1-0.3,1-0.9S94.5,10.6,93.9,10.6z"/>
					<path class="st0" d="M101.5,13.3l-0.5,0.6v2h-1.4V9.4h1.4v2.9l2.3-2.9h1.7l-2.6,3l2.8,3.4h-1.7L101.5,13.3z"/>
				</g>
			</g>
		</g>
		<path class="st0" d="M3,8.9c0-0.2,0.1-0.4,0.2-0.5L9,2.6c0.3-0.3,0.7-0.3,1,0l4.5,4.5l0,0c0.8,0.8,1.3,1.9,1.3,3
			c0,0.9-0.3,1.8-0.8,2.5c0.5,0.7,0.8,1.6,0.8,2.5c0,2.3-1.9,4.2-4.2,4.2c-1.1,0-2.1-0.4-2.9-1.1l-0.1-0.1c0,0-0.1,0-0.1-0.1L7,16.5
			l-2.8,2.8c-0.1,0.1-0.3,0.2-0.5,0.2c-0.1,0-0.2,0-0.3-0.1C3.1,19.3,3,19,3,18.8v-5c0-0.2,0.1-0.4,0.2-0.5L9,7.5
			c0.1-0.1,0.3-0.2,0.5-0.2l0,0c0.2,0,0.4,0.1,0.5,0.2l2.1,2.1c0.3,0.3,0.3,0.7,0,1s-0.7,0.3-1,0L9.5,9l-5.1,5.1v3.1l2.1-2.1
			c0.3-0.3,0.7-0.3,1,0l2.2,2.2l0,0c0.5,0.5,1.2,0.8,1.9,0.8c1.6,0,2.9-1.3,2.9-2.9c0-0.6-0.2-1.1-0.5-1.5c-0.7,0.5-1.5,0.8-2.4,0.8
			c-1.1,0-2.1-0.4-2.9-1.1c-0.3-0.3-0.3-0.7,0-1s0.7-0.3,1,0c0.5,0.5,1.2,0.8,1.9,0.8c1.6,0,2.9-1.3,2.9-2.9c0-0.8-0.3-1.5-0.9-2.1
			c0,0,0,0-0.1-0.1l-4-4L4.4,9.2v1.5L3,12.1V8.9z"/>
	</g>
</g>
</svg>
