<?xml version="1.0" encoding="utf-8"?>
<!-- Generator: Adobe Illustrator 22.0.1, SVG Export Plug-In . SVG Version: 6.00 Build 0)  -->
<svg version="1.1" id="Ebene_1" xmlns="http://www.w3.org/2000/svg" xmlns:xlink="http://www.w3.org/1999/xlink" x="0px" y="0px"
	 viewBox="0 0 42.5 42.5" style="enable-background:new 0 0 42.5 42.5;" xml:space="preserve">
<style type="text/css">
	.st0{fill:#FFFFFF;}
</style>
<g>
	<path class="st0" d="M8.7,17.1c0-0.4,0.1-0.7,0.4-1L20.6,4.6c0.5-0.5,1.4-0.5,2,0l9,9l0.1,0.1c1.6,1.6,2.6,3.8,2.6,6.1
		c0,1.9-0.6,3.6-1.6,5c1,1.4,1.6,3.1,1.6,5c0,4.7-3.8,8.5-8.5,8.5c-2.1,0-4.2-0.8-5.8-2.3c-0.1-0.1-0.2-0.2-0.3-0.3
		c-0.1,0-0.1-0.1-0.2-0.1l-3.1-3.1L11,38.1c-0.3,0.3-0.6,0.4-1,0.4c-0.2,0-0.4,0-0.5-0.1c-0.5-0.2-0.9-0.7-0.9-1.3v-10
		c0-0.4,0.1-0.7,0.4-1l11.5-11.5c0.3-0.3,0.6-0.4,1-0.4l0,0c0.4,0,0.7,0.1,1,0.4l4.1,4.2c0.5,0.5,0.5,1.4,0,2c-0.5,0.5-1.4,0.5-2,0
		l-3.1-3.2L11.4,27.7v6.1l4.1-4.1c0.5-0.5,1.4-0.5,2,0l4.4,4.4l0,0c1.1,1,2.4,1.5,3.9,1.5c3.1,0,5.7-2.6,5.7-5.7
		c0-1.1-0.3-2.2-0.9-3.1c-1.4,0.9-3,1.5-4.8,1.5c-2.1,0-4.2-0.8-5.8-2.3c-0.6-0.5-0.6-1.4-0.1-1.9c0.5-0.6,1.4-0.6,1.9-0.1
		c1.1,1,2.4,1.5,3.9,1.5c3.1,0,5.7-2.6,5.7-5.7c0-1.6-0.6-3-1.7-4.1l-0.1-0.1l-8.1-8.1L11.4,17.7v3l-2.8,2.8L8.7,17.1z"/>
</g>
</svg>
